<svg id="Layer_1" data-name="Layer 1" xmlns="http://www.w3.org/2000/svg" viewBox="0 0 532.3618 75.9923">
  <g>
    <path d="M111.9643,3.06a2.0014,2.0014,0,0,1,2.0051-2.0046h42.9538a2.0014,2.0014,0,0,1,2.005,2.0046v8.6548a2.0013,2.0013,0,0,1-2.005,2.0043H125.6825V33.56h26.07a2.0751,2.0751,0,0,1,2.005,2.0057v8.6533a2.0709,2.0709,0,0,1-2.005,2.001h-26.07V72.9237a2.0675,2.0675,0,0,1-2.0009,2.0045h-9.7122a2.0013,2.0013,0,0,1-2.0051-2.0045Z" fill="#61c2a4"/>
    <path d="M171.5014,3.06a2.0014,2.0014,0,0,1,2.005-2.0046H216.46a2.0014,2.0014,0,0,1,2.005,2.0046v8.6548a2.0013,2.0013,0,0,1-2.005,2.0043H185.22V31.0275h26.07a2.0751,2.0751,0,0,1,2.005,2.0054V41.79a2.0071,2.0071,0,0,1-2.005,2.0057H185.22V62.2646H216.46a2.0006,2.0006,0,0,1,2.005,2.0007v8.6584a2.0013,2.0013,0,0,1-2.005,2.0045h-42.954a2.0013,2.0013,0,0,1-2.005-2.0045Z" fill="#61c2a4"/>
    <path d="M233.5719,3.06a2.0014,2.0014,0,0,1,2.0051-2.0046h42.9579A2.0014,2.0014,0,0,1,280.54,3.06v8.6548a2.0013,2.0013,0,0,1-2.005,2.0043H247.2943V31.0275h26.07a2.0751,2.0751,0,0,1,2.005,2.0054V41.79a2.0045,2.0045,0,0,1-2.005,2.0057h-26.07V62.2646h31.2406a2.0006,2.0006,0,0,1,2.005,2.0007v8.6584a2.0013,2.0013,0,0,1-2.005,2.0045H235.577a2.0013,2.0013,0,0,1-2.0051-2.0045Z" fill="#61c2a4"/>
    <path d="M295.6444,3.06a1.9842,1.9842,0,0,1,1.898-2.0046h25.02a36.939,36.939,0,1,1,0,73.8776h-25.02a1.9875,1.9875,0,0,1-1.898-2.0055ZM321.29,62.0546c13.7224,0,23.7517-10.3424,23.7517-24.1672,0-13.719-10.0335-24.0653-23.7517-24.0653H309.26V62.0546Z" fill="#61c2a4"/>
    <path d="M374.5027,58.5725a8.885,8.885,0,0,1,8.7613,8.765,8.792,8.792,0,0,1-8.7613,8.6548,8.7,8.7,0,0,1-8.6582-8.6548,8.7909,8.7909,0,0,1,8.6582-8.765" fill="#61c2a4"/>
    <path d="M395.72,3.06a2.0014,2.0014,0,0,1,2.0051-2.0046h42.9537A2.0014,2.0014,0,0,1,442.6834,3.06v8.6548a2.0013,2.0013,0,0,1-2.0051,2.0043H409.4377V33.56h26.07a2.0752,2.0752,0,0,1,2.0051,2.0057v8.6533a2.0709,2.0709,0,0,1-2.0051,2.001h-26.07V72.9237a2.0675,2.0675,0,0,1-2.0009,2.0045h-9.7122a2.0013,2.0013,0,0,1-2.0051-2.0045Z" fill="#61c2a4"/>
    <path d="M462.329,1.581A1.7762,1.7762,0,0,1,464.2311,0h1.688a1.9338,1.9338,0,0,1,1.7951,1.0531L490.9306,50.87h.3171L514.4723,1.0531A1.7988,1.7988,0,0,1,516.2591,0h1.688a1.7845,1.7845,0,0,1,1.9022,1.581L532.2951,72.51a1.8318,1.8318,0,0,1-1.8978,2.4255H520.792a2.2917,2.2917,0,0,1-2.0009-1.581L512.562,33.3484h-.313L493.78,74.8275a1.8,1.8,0,0,1-1.7991,1.1612h-1.9021a1.9092,1.9092,0,0,1-1.7911-1.1612L469.6121,33.3484h-.3211l-6.118,40.0063a2.0471,2.0471,0,0,1-1.902,1.581h-9.4942a1.9333,1.9333,0,0,1-2.0091-2.4255Z" fill="#61c2a4"/>
    <rect x="64.6175" y="33.9749" width="9.5229" height="40.9569" fill="#61c2a4"/>
    <rect x="44.032" y="13.5167" width="9.5229" height="61.4151" fill="#61c2a4"/>
    <rect x="23.4463" y="33.9749" width="9.5229" height="40.9569" fill="#61c2a4"/>
    <rect x="2.8608" y="54.4576" width="9.5229" height="20.4827" fill="#61c2a4"/>
  </g>
</svg>
